{"title":"Match of the Day - S51E03 - 15th August 2015 - 720p x264","uid":12237266,"size":1773279559,"categoryP":"video","categoryS":"hd___tv_shows","magnet":"?xt=urn:btih:1c1e80c1642b969e0057b1b21c7e78465def50ed&amp;dn=Match+of+the+Day+-+S51E03+-+15th+August+2015+-+720p+x264&amp;tr=udp%3A%2F%2Ftracker.openbittorrent.com%3A80&amp;tr=udp%3A%2F%2Fopen.demonii.com%3A1337&amp;tr=udp%3A%2F%2Ftracker.coppersurfer.tk%3A6969&amp;tr=udp%3A%2F%2Fexodus.desync.com%3A6969","seeders":28,"leechers":0,"uploader":"rugbybill","files":3,"time":1439686773,"description":"SPORT: Match of the Day\nOn: BBC 1 HD    \nDate: Saturday 15th August 2015\nTime: 22:20 to 23:45 \n\nGary Lineker introduces Premier League highlights and reaction with studio guests Ian Wright and Jermaine Jenas. Tottenham host Stoke, looking to avenge back-to-back defeats last season. West Ham begin their final Premier League season at Upton Park with the visit of Leicester, while Swansea entertain Newcastle, boasting a six-game unbeaten run against the Magpies. The day's other fixtures see Southampton play Everton, Norwich travel to Sunderland and Watford face West Bromwich Albion. Plus highlights of Manchester United's trip to Aston Villa on Friday night.\n\nRunning sequence:\n\nSunderland v Norwich\nWest Ham v Leicester\nSpurs v Stoke\nSwansea v Newcastle\nVilla v Man Utd\nWatford v West Brom\n\n\n\nGeneral\nComplete name               : Match.of.the.Day-S51E03-2015.08.15-720p.x264.mp4\nFormat                      : MPEG-4\nFormat profile              : Base Media / Version 2\nCodec ID                    : mp42\nFile size                   : 1.65 GiB\nDuration                    : 1h 24mn\nOverall bit rate mode       : Variable\nOverall bit rate            : 2 807 Kbps\nWriting application         : #YGFD                     \n\nVideo\nID                          : 1\nFormat                      : AVC\nFormat/Info                 : Advanced Video Codec\nFormat profile              : High@L4\nFormat settings, CABAC      : Yes\nFormat settings, ReFrames   : 8 frames\nCodec ID                    : avc1\nCodec ID/Info               : Advanced Video Coding\nDuration                    : 1h 24mn\nBit rate                    : 2 650 Kbps\nWidth                       : 1 280 pixels\nHeight                      : 720 pixels\nDisplay aspect ratio        : 16:9\nFrame rate mode             : Constant\nFrame rate                  : 25.000 fps\nColor space                 : YUV\nChroma subsampling          : 4:2:0\nBit depth                   : 8 bits\nScan type                   : Progressive\nBits/(Pixel*Frame)          : 0.115\nStream size                 : 1.55 GiB (94%)\nWriting library             : x264 core 130 r2273 b3065e6\nEncoding settings           : cabac=1 / ref=8 / deblock=1:0:0 / analyse=0x3:0x133 / me=umh / subme=9 / psy=1 / psy_rd=1.00:0.00 / mixed_ref=1 / me_range=16 / chroma_me=1 / trellis=2 / 8x8dct=1 / cqm=0 / deadzone=21,11 / fast_pskip=1 / chroma_qp_offset=-2 / threads=24 / lookahead_threads=2 / sliced_threads=0 / nr=0 / decimate=1 / interlaced=0 / bluray_compat=0 / constrained_intra=0 / bframes=3 / b_pyramid=2 / b_adapt=2 / b_bias=0 / direct=3 / weightb=1 / open_gop=0 / weightp=2 / keyint=250 / keyint_min=25 / scenecut=40 / intra_refresh=0 / rc_lookahead=60 / rc=abr / mbtree=1 / bitrate=2650 / ratetol=1.0 / qcomp=0.60 / qpmin=0 / qpmax=69 / qpstep=4 / ip_ratio=1.40 / aq=1:1.00\n\nAudio\nID                          : 2\nFormat                      : AAC\nFormat/Info                 : Advanced Audio Codec\nFormat profile              : LC\nCodec ID                    : 40\nDuration                    : 1h 24mn\nBit rate mode               : Variable\nBit rate                    : 160 Kbps\nMaximum bit rate            : 311 Kbps\nChannel(s)                  : 2 channels\nChannel positions           : Front: L R\nSampling rate               : 48.0 KHz\nCompression mode            : Lossy\nStream size                 : 96.4 MiB (6%)\nTitle                       : Stereo\nLanguage                    : English","torrent":{"xt":"urn:btih:1c1e80c1642b969e0057b1b21c7e78465def50ed","amp;dn":"Match+of+the+Day+-+S51E03+-+15th+August+2015+-+720p+x264","amp;tr":["udp%3A%2F%2Ftracker.openbittorrent.com%3A80","udp%3A%2F%2Fopen.demonii.com%3A1337","udp%3A%2F%2Ftracker.coppersurfer.tk%3A6969","udp%3A%2F%2Fexodus.desync.com%3A6969"],"infoHash":"1c1e80c1642b969e0057b1b21c7e78465def50ed","infoHashBuffer":{"type":"Buffer","data":[28,30,128,193,100,43,150,158,0,87,177,178,28,126,120,70,93,239,80,237]},"announce":[],"urlList":[]}}